PathFileType  4	(X/Y/Z) C:\Users\antoi\Documents\MyRepositories\mobilecap\ResultsAnalysis
DataRate	CameraRate	NumFrames	NumMarkers	Units	OrigDataRate	OrigDataStartFrame	OrigNumFrames
100.0	100.0	5	51	mm	100.0	88	234
Frame#	Time	r_knee			r_shank_antsup			r_ankle			r_calc			r_5meta			r_toe			L_knee			L_shank_antsup			L_ankle			L_calc			L_5meta			L_toe			r_sh2			r_sh3			r_sh4			L_sh2			L_sh3			r_thigh1			r_thigh2			r_thigh3			r_thigh4			r_thigh5			L_thigh1			L_thigh2			L_thigh3			L_thigh4			r.ASIS			r.PSIS			L.ASIS			L.PSIS			C7			R_Shoulder			L_Shoulder			R_Sternum			L_Sternum			R_humerus			R_elbow_med			R_elbow_lat			R_forearm			R_wrist_radius			R_wrist_ulna			L_humerus			L_elbow_med			L_elbow_lat			L_forearm			L_wrist_radius			L_wrist_ulna			R_HJC			L_HJC			R_HJC_reg			L_HJC_reg			
		X1	Y1	Z1	X2	Y2	Z2	X3	Y3	Z3	X4	Y4	Z4	X5	Y5	Z5	X6	Y6	Z6	X7	Y7	Z7	X8	Y8	Z8	X9	Y9	Z9	X10	Y10	Z10	X11	Y11	Z11	X12	Y12	Z12	X13	Y13	Z13	X14	Y14	Z14	X15	Y15	Z15	X16	Y16	Z16	X17	Y17	Z17	X18	Y18	Z18	X19	Y19	Z19	X20	Y20	Z20	X21	Y21	Z21	X22	Y22	Z22	X23	Y23	Z23	X24	Y24	Z24	X25	Y25	Z25	X26	Y26	Z26	X27	Y27	Z27	X28	Y28	Z28	X29	Y29	Z29	X30	Y30	Z30	X31	Y31	Z31	X32	Y32	Z32	X33	Y33	Z33	X34	Y34	Z34	X35	Y35	Z35	X36	Y36	Z36	X37	Y37	Z37	X38	Y38	Z38	X39	Y39	Z39	X40	Y40	Z40	X41	Y41	Z41	X42	Y42	Z42	X43	Y43	Z43	X44	Y44	Z44	X45	Y45	Z45	X46	Y46	Z46	X47	Y47	Z47	X48	Y48	Z48	X49	Y49	Z49	X50	Y50	Z50	X51	Y51	Z51	

88	0.87000000	-849.52631	718.47926	-427.85017	-855.70505	634.55789	-445.56993	-1162.63701	478.41522	-460.57576	-1239.19281	496.21425	-499.66917	-1123.97781	370.83419	-425.65639	-1066.90857	362.18546	-477.96187	-608.45387	833.05238	-780.20654	-609.42252	735.50325	-779.63401	-836.95830	531.12994	-727.84207	-904.36078	550.93408	-674.63849	-804.32898	411.90623	-762.99493	-750.16388	406.26410	-716.21988	-958.38749	580.84634	-428.00507	-896.74257	702.21420	-413.49230	-994.16688	644.52582	-414.41366	-675.07573	797.08349	-781.60602	-748.67877	699.46828	-774.60259	-797.27346	1036.67994	-405.08661	-795.18858	924.17473	-405.53532	-904.23774	915.82063	-401.64402	-910.36956	1032.84239	-397.45063	-853.29503	899.22232	-385.59873	-770.63810	1049.59904	-805.58855	-665.81691	958.43378	-796.81643	-840.94738	969.14883	-755.17916	-731.26283	879.69144	-762.68449	-773.81300	1180.98693	-459.87841	-952.05944	1261.64035	-532.42308	-776.93725	1181.10116	-709.58679	-961.78442	1264.89982	-632.68570	-797.60771	1652.31334	-576.71034	-691.08623	1594.56086	-417.87520	-729.35818	1612.50656	-755.19999	-666.94703	1573.36749	-562.00239	-666.51979	1576.49762	-605.28575	-659.52322	1478.59246	-345.80090	-635.58546	1257.28281	-382.61232	-619.11629	1283.16277	-310.76258	-482.93421	1315.59599	-334.74275	-364.93266	1331.95427	-367.04641	-350.52603	1303.74007	-350.44227	-741.86963	1510.22826	-830.82554	-851.13183	1291.70067	-826.11203	-814.33163	1319.37417	-893.61673	-729.78894	1237.55694	-874.38605	-653.22095	1112.43670	-867.74844	-667.80608	1100.14378	-894.79436	-865.34131	1119.74172	-482.85829	-869.44142	1124.14269	-689.24299	-854.61419	1124.04605	-488.72394	-870.51647	1129.37682	-652.68571	
89	0.88000000	-826.20164	723.76489	-426.99698	-835.00929	640.56101	-444.36280	-1144.13787	490.47587	-459.81448	-1217.42865	515.79301	-499.58552	-1115.83822	379.46667	-426.09270	-1059.24224	364.61397	-477.97032	-595.71790	837.31260	-782.64948	-592.47903	739.09805	-782.38391	-808.93145	522.79966	-729.43268	-876.76641	539.52215	-675.39023	-771.24279	405.08170	-764.96686	-716.60707	401.98201	-718.70805	-938.56694	588.63484	-427.17141	-874.77293	708.72429	-412.14650	-973.30770	652.75678	-414.05478	-661.30888	796.90455	-784.35787	-729.59681	695.42045	-776.91352	-782.40406	1043.05159	-405.84640	-777.39539	930.87533	-405.86635	-886.12401	920.07394	-401.35585	-895.30468	1036.84122	-397.29072	-835.13411	904.54058	-385.29024	-757.05133	1054.84880	-806.96616	-653.20266	962.93223	-799.23381	-828.02699	974.46152	-757.60923	-718.91222	884.48534	-764.97536	-760.87691	1188.38311	-461.64334	-939.80291	1266.08942	-532.58356	-764.89899	1188.12725	-711.02158	-949.91654	1269.08173	-632.56795	-784.88285	1657.78302	-578.51514	-679.79752	1599.99103	-420.09114	-717.71265	1616.97851	-757.13143	-654.77179	1578.04485	-563.95009	-654.48003	1581.20713	-607.56063	-649.21648	1484.27740	-347.40166	-626.58334	1262.79459	-384.39756	-610.23667	1288.46037	-312.17730	-474.88341	1323.26307	-336.28178	-357.50369	1342.27090	-368.51912	-342.37095	1314.00775	-352.51691	-731.82035	1515.32076	-832.52223	-842.44019	1297.57066	-826.31750	-806.44730	1324.30045	-893.64025	-722.96895	1243.01938	-876.47590	-646.33264	1116.80842	-869.01054	-661.08606	1104.36390	-895.51094	-850.99012	1125.54629	-483.66601	-856.41992	1129.84935	-690.02189	-840.75368	1130.26605	-490.08871	-857.31429	1135.16455	-653.79035	
90	0.89000000	-801.66450	728.54725	-426.05155	-812.85881	645.87681	-443.39681	-1124.65117	503.08886	-459.26773	-1194.99275	534.40013	-499.60766	-1104.56825	390.48500	-425.81110	-1048.45990	371.02023	-477.01779	-584.12501	840.49339	-784.58452	-576.07788	742.13780	-785.54875	-780.60395	513.54153	-731.60543	-848.41918	527.02864	-676.27080	-737.74949	397.51716	-767.55116	-682.76172	396.86624	-721.62784	-917.41975	595.87993	-426.39553	-850.52511	713.78367	-411.19799	-950.84754	660.41649	-413.49659	-648.41207	795.62553	-786.52793	-710.74411	690.42106	-778.99265	-767.70503	1049.19490	-406.70778	-759.35873	937.39935	-406.07236	-867.49343	923.42729	-400.75781	-880.33646	1039.91768	-397.52932	-816.13527	909.43976	-384.78451	-744.83484	1059.01008	-809.41715	-641.38253	966.36413	-801.37676	-815.97941	979.16604	-759.77692	-707.60179	888.28791	-766.45540	-748.33400	1195.51745	-463.38029	-927.70113	1270.16697	-533.42550	-753.32623	1194.36524	-712.31199	-937.88234	1273.03691	-632.84406	-771.46411	1662.68617	-580.70568	-668.21253	1604.34996	-422.37604	-704.97757	1620.35995	-758.99379	-642.21185	1581.62167	-565.70218	-641.55433	1585.05546	-609.95528	-638.90326	1488.95792	-349.00093	-618.66127	1267.16664	-386.08960	-602.45167	1292.49563	-313.27398	-467.76336	1328.85515	-337.49073	-350.73449	1349.70511	-369.81016	-335.14218	1321.32788	-354.32946	-720.56493	1519.43363	-834.23141	-833.20840	1302.65415	-826.54232	-797.58938	1328.80215	-894.39113	-715.28922	1247.24183	-878.05014	-638.60893	1119.77768	-869.32062	-653.83262	1107.37317	-895.83811	-837.16132	1131.18874	-484.47951	-843.66780	1134.93657	-690.81417	-827.45672	1135.73170	-491.73806	-844.19104	1140.44868	-655.14593	
91	0.90000000	-777.12613	732.92466	-425.49926	-790.22323	650.41557	-443.12841	-1105.02495	515.84980	-458.97566	-1173.79345	549.54734	-499.56084	-1088.68779	402.63343	-424.87025	-1032.98364	381.01334	-475.55607	-573.51458	842.49478	-786.11990	-560.31659	744.26061	-788.66645	-751.92549	503.44079	-734.40280	-819.20479	513.63316	-678.57384	-704.11571	389.17698	-770.71181	-649.00681	390.95787	-724.83601	-895.93523	602.85081	-426.09180	-825.67359	718.41555	-410.76808	-927.68012	667.99419	-412.91567	-635.84745	793.07407	-787.88806	-692.07490	684.46202	-780.96286	-753.36512	1055.03547	-407.47266	-741.43408	943.48036	-406.17694	-848.90559	925.78897	-399.82258	-865.49771	1041.99026	-397.97663	-796.73722	913.80181	-384.04893	-733.52986	1061.99387	-811.89186	-630.37645	968.54398	-803.08456	-804.73766	982.99749	-761.21276	-697.17496	891.11543	-767.45577	-736.23953	1201.89349	-465.30964	-915.83345	1273.72102	-534.62551	-741.15615	1200.19077	-713.40428	-925.86454	1276.56163	-633.53454	-757.59798	1666.74841	-582.95266	-656.41114	1607.60814	-424.68438	-691.53223	1622.49340	-760.50542	-629.39106	1584.09401	-567.42461	-628.11381	1587.77509	-612.42928	-628.51578	1492.57439	-350.45880	-611.76787	1270.16549	-387.23287	-595.60472	1295.30122	-313.78559	-461.38775	1332.29562	-338.36025	-344.54715	1354.31259	-370.77539	-328.50865	1325.75364	-355.87777	-708.11931	1522.23408	-835.58143	-823.53193	1306.81780	-826.85257	-787.85260	1332.35682	-895.15842	-706.25341	1249.92415	-878.58368	-630.41168	1121.48112	-869.23538	-645.63461	1109.37148	-896.72634	-823.69946	1136.15334	-485.63583	-830.57167	1139.65486	-691.96276	-814.34589	1140.75976	-493.73305	-830.86411	1145.43747	-656.60881	
92	0.91000000	-752.98531	736.95235	-425.41859	-767.08287	654.71881	-443.44621	-1084.23740	527.28900	-458.87884	-1152.92363	560.52000	-499.18371	-1067.88104	413.88512	-423.87551	-1012.77252	391.65479	-474.77283	-563.68276	843.15807	-787.35989	-545.52401	745.10704	-790.82342	-723.01522	492.58599	-737.78340	-789.54707	499.65481	-682.73847	-670.58336	380.10495	-774.35090	-615.51732	384.33235	-728.51231	-873.86439	609.62363	-426.38253	-801.38031	723.90317	-410.88169	-904.01181	675.53209	-412.74059	-623.60005	789.06622	-788.41685	-673.63812	677.53442	-782.93391	-739.33953	1060.04281	-408.20103	-723.67910	948.75316	-406.57275	-830.47606	927.25459	-398.71206	-850.82363	1043.00592	-398.46173	-777.43798	917.46698	-383.13894	-722.29386	1063.77597	-812.82016	-620.14594	969.43478	-804.34879	-794.21286	985.74973	-762.00463	-687.55838	892.89296	-768.20644	-724.66108	1207.18192	-467.10857	-904.34358	1276.61018	-536.07498	-728.96091	1204.89346	-714.22816	-914.02643	1279.51870	-634.60984	-743.53468	1669.71292	-585.02745	-644.31641	1609.66039	-426.86617	-677.68761	1623.49599	-761.85716	-616.41193	1585.47932	-569.20458	-614.63399	1589.27716	-614.68690	-618.10216	1494.90966	-351.79006	-605.87819	1271.71709	-387.65109	-589.51251	1296.80476	-313.97238	-455.65187	1333.55581	-339.03149	-338.70492	1356.18208	-371.41615	-322.33514	1327.43834	-357.06957	-694.77161	1523.64381	-836.72120	-813.45854	1309.91756	-827.21689	-777.47903	1334.57296	-895.48425	-696.74659	1251.20477	-878.66797	-621.94777	1122.12730	-868.90546	-636.91656	1110.15406	-897.11123	-810.97218	1140.28111	-486.81306	-817.69197	1143.50047	-693.14924	-801.80342	1144.81663	-495.77384	-817.75090	1149.60620	-658.05212	
